<svg
  width="68.571"
  height="54.857"
  viewBox="0 0 68.571 54.857"
  xmlns="http://www.w3.org/2000/svg"
>
  <g
    id="svgGroup"
    stroke-linecap="round"
    fill-rule="evenodd"
    font-size="9pt"
    stroke="none"
    stroke-width="0"
    fill="none"
  >
    <path
      d="M 6.857 54.857 L 6.857 48 L 0 48 L 0 27.429 L 6.857 27.429 L 6.857 20.571 L 34.286 20.571 L 34.286 13.714 L 0 13.714 L 0 6.857 L 6.857 6.857 L 6.857 0 L 41.143 0 L 41.143 6.857 L 48 6.857 L 48 54.857 L 34.286 54.857 L 34.286 48 L 27.429 48 L 27.429 54.857 L 6.857 54.857 Z M 13.714 34.286 L 34.286 34.286 L 34.286 41.143 L 13.714 41.143 L 13.714 34.286 Z M 54.857 54.857 L 54.857 41.143 L 68.571 41.143 L 68.571 54.857 L 54.857 54.857 Z"
      vector-effect="non-scaling-stroke"
    />
  </g>
  <style>
        g { fill: #000; stroke: #000 }
        @media (prefers-color-scheme: dark) {
            g { fill: #FFF; stroke: #FFF; }
        }
  </style>
</svg>