<svg xmlns="http://www.w3.org/2000/svg" viewBox="0 0 819 90" fill="currentColor" preserveAspectRatio="xMidYMid meet" role="img" aria-label="COMPUTER"><rect x="9" y="0" width="9" height="18"/><rect x="18" y="0" width="9" height="18"/><rect x="27" y="0" width="9" height="18"/><rect x="36" y="0" width="9" height="18"/><rect x="45" y="0" width="9" height="18"/><rect x="54" y="0" width="9" height="18"/><rect x="81" y="0" width="9" height="18"/><rect x="90" y="0" width="9" height="18"/><rect x="99" y="0" width="9" height="18"/><rect x="108" y="0" width="9" height="18"/><rect x="117" y="0" width="9" height="18"/><rect x="126" y="0" width="9" height="18"/><rect x="153" y="0" width="9" height="18"/><rect x="162" y="0" width="9" height="18"/><rect x="171" y="0" width="9" height="18"/><rect x="216" y="0" width="9" height="18"/><rect x="225" y="0" width="9" height="18"/><rect x="234" y="0" width="9" height="18"/><rect x="306" y="0" width="9" height="18"/><rect x="315" y="0" width="9" height="18"/><rect x="324" y="0" width="9" height="18"/><rect x="333" y="0" width="9" height="18"/><rect x="342" y="0" width="9" height="18"/><rect x="351" y="0" width="9" height="18"/><rect x="378" y="0" width="9" height="18"/><rect x="387" y="0" width="9" height="18"/><rect x="432" y="0" width="9" height="18"/><rect x="441" y="0" width="9" height="18"/><rect x="459" y="0" width="9" height="18"/><rect x="468" y="0" width="9" height="18"/><rect x="513" y="0" width="9" height="18"/><rect x="522" y="0" width="9" height="18"/><rect x="594" y="0" width="9" height="18"/><rect x="603" y="0" width="9" height="18"/><rect x="612" y="0" width="9" height="18"/><rect x="621" y="0" width="9" height="18"/><rect x="630" y="0" width="9" height="18"/><rect x="639" y="0" width="9" height="18"/><rect x="648" y="0" width="9" height="18"/><rect x="657" y="0" width="9" height="18"/><rect x="684" y="0" width="9" height="18"/><rect x="693" y="0" width="9" height="18"/><rect x="702" y="0" width="9" height="18"/><rect x="711" y="0" width="9" height="18"/><rect x="720" y="0" width="9" height="18"/><rect x="747" y="0" width="9" height="18"/><rect x="756" y="0" width="9" height="18"/><rect x="792" y="0" width="9" height="18"/><rect x="801" y="0" width="9" height="18"/><rect x="0" y="18" width="9" height="18"/><rect x="9" y="18" width="9" height="18"/><rect x="72" y="18" width="9" height="18"/><rect x="81" y="18" width="9" height="18"/><rect x="126" y="18" width="9" height="18"/><rect x="135" y="18" width="9" height="18"/><rect x="153" y="18" width="9" height="18"/><rect x="162" y="18" width="9" height="18"/><rect x="171" y="18" width="9" height="18"/><rect x="180" y="18" width="9" height="18"/><rect x="207" y="18" width="9" height="18"/><rect x="216" y="18" width="9" height="18"/><rect x="225" y="18" width="9" height="18"/><rect x="234" y="18" width="9" height="18"/><rect x="306" y="18" width="9" height="18"/><rect x="315" y="18" width="9" height="18"/><rect x="351" y="18" width="9" height="18"/><rect x="360" y="18" width="9" height="18"/><rect x="378" y="18" width="9" height="18"/><rect x="387" y="18" width="9" height="18"/><rect x="432" y="18" width="9" height="18"/><rect x="441" y="18" width="9" height="18"/><rect x="459" y="18" width="9" height="18"/><rect x="468" y="18" width="9" height="18"/><rect x="513" y="18" width="9" height="18"/><rect x="522" y="18" width="9" height="18"/><rect x="621" y="18" width="9" height="18"/><rect x="630" y="18" width="9" height="18"/><rect x="675" y="18" width="9" height="18"/><rect x="684" y="18" width="9" height="18"/><rect x="720" y="18" width="9" height="18"/><rect x="729" y="18" width="9" height="18"/><rect x="747" y="18" width="9" height="18"/><rect x="756" y="18" width="9" height="18"/><rect x="792" y="18" width="9" height="18"/><rect x="801" y="18" width="9" height="18"/><rect x="0" y="36" width="9" height="18"/><rect x="9" y="36" width="9" height="18"/><rect x="72" y="36" width="9" height="18"/><rect x="81" y="36" width="9" height="18"/><rect x="126" y="36" width="9" height="18"/><rect x="135" y="36" width="9" height="18"/><rect x="153" y="36" width="9" height="18"/><rect x="162" y="36" width="9" height="18"/><rect x="180" y="36" width="9" height="18"/><rect x="189" y="36" width="9" height="18"/><rect x="198" y="36" width="9" height="18"/><rect x="207" y="36" width="9" height="18"/><rect x="225" y="36" width="9" height="18"/><rect x="234" y="36" width="9" height="18"/><rect x="252" y="36" width="9" height="18"/><rect x="261" y="36" width="9" height="18"/><rect x="270" y="36" width="9" height="18"/><rect x="279" y="36" width="9" height="18"/><rect x="288" y="36" width="9" height="18"/><rect x="306" y="36" width="9" height="18"/><rect x="315" y="36" width="9" height="18"/><rect x="324" y="36" width="9" height="18"/><rect x="333" y="36" width="9" height="18"/><rect x="342" y="36" width="9" height="18"/><rect x="351" y="36" width="9" height="18"/><rect x="378" y="36" width="9" height="18"/><rect x="387" y="36" width="9" height="18"/><rect x="432" y="36" width="9" height="18"/><rect x="441" y="36" width="9" height="18"/><rect x="459" y="36" width="9" height="18"/><rect x="468" y="36" width="9" height="18"/><rect x="513" y="36" width="9" height="18"/><rect x="522" y="36" width="9" height="18"/><rect x="540" y="36" width="9" height="18"/><rect x="549" y="36" width="9" height="18"/><rect x="558" y="36" width="9" height="18"/><rect x="567" y="36" width="9" height="18"/><rect x="576" y="36" width="9" height="18"/><rect x="621" y="36" width="9" height="18"/><rect x="630" y="36" width="9" height="18"/><rect x="675" y="36" width="9" height="18"/><rect x="684" y="36" width="9" height="18"/><rect x="693" y="36" width="9" height="18"/><rect x="702" y="36" width="9" height="18"/><rect x="711" y="36" width="9" height="18"/><rect x="720" y="36" width="9" height="18"/><rect x="729" y="36" width="9" height="18"/><rect x="747" y="36" width="9" height="18"/><rect x="756" y="36" width="9" height="18"/><rect x="765" y="36" width="9" height="18"/><rect x="774" y="36" width="9" height="18"/><rect x="783" y="36" width="9" height="18"/><rect x="792" y="36" width="9" height="18"/><rect x="801" y="36" width="9" height="18"/><rect x="0" y="54" width="9" height="18"/><rect x="9" y="54" width="9" height="18"/><rect x="72" y="54" width="9" height="18"/><rect x="81" y="54" width="9" height="18"/><rect x="126" y="54" width="9" height="18"/><rect x="135" y="54" width="9" height="18"/><rect x="153" y="54" width="9" height="18"/><rect x="162" y="54" width="9" height="18"/><rect x="189" y="54" width="9" height="18"/><rect x="198" y="54" width="9" height="18"/><rect x="225" y="54" width="9" height="18"/><rect x="234" y="54" width="9" height="18"/><rect x="306" y="54" width="9" height="18"/><rect x="315" y="54" width="9" height="18"/><rect x="378" y="54" width="9" height="18"/><rect x="387" y="54" width="9" height="18"/><rect x="432" y="54" width="9" height="18"/><rect x="441" y="54" width="9" height="18"/><rect x="459" y="54" width="9" height="18"/><rect x="468" y="54" width="9" height="18"/><rect x="513" y="54" width="9" height="18"/><rect x="522" y="54" width="9" height="18"/><rect x="621" y="54" width="9" height="18"/><rect x="630" y="54" width="9" height="18"/><rect x="675" y="54" width="9" height="18"/><rect x="684" y="54" width="9" height="18"/><rect x="720" y="54" width="9" height="18"/><rect x="729" y="54" width="9" height="18"/><rect x="747" y="54" width="9" height="18"/><rect x="756" y="54" width="9" height="18"/><rect x="792" y="54" width="9" height="18"/><rect x="801" y="54" width="9" height="18"/><rect x="9" y="72" width="9" height="18"/><rect x="18" y="72" width="9" height="18"/><rect x="27" y="72" width="9" height="18"/><rect x="36" y="72" width="9" height="18"/><rect x="45" y="72" width="9" height="18"/><rect x="54" y="72" width="9" height="18"/><rect x="81" y="72" width="9" height="18"/><rect x="90" y="72" width="9" height="18"/><rect x="99" y="72" width="9" height="18"/><rect x="108" y="72" width="9" height="18"/><rect x="117" y="72" width="9" height="18"/><rect x="126" y="72" width="9" height="18"/><rect x="153" y="72" width="9" height="18"/><rect x="162" y="72" width="9" height="18"/><rect x="225" y="72" width="9" height="18"/><rect x="234" y="72" width="9" height="18"/><rect x="306" y="72" width="9" height="18"/><rect x="315" y="72" width="9" height="18"/><rect x="387" y="72" width="9" height="18"/><rect x="396" y="72" width="9" height="18"/><rect x="405" y="72" width="9" height="18"/><rect x="414" y="72" width="9" height="18"/><rect x="423" y="72" width="9" height="18"/><rect x="432" y="72" width="9" height="18"/><rect x="468" y="72" width="9" height="18"/><rect x="477" y="72" width="9" height="18"/><rect x="486" y="72" width="9" height="18"/><rect x="495" y="72" width="9" height="18"/><rect x="504" y="72" width="9" height="18"/><rect x="513" y="72" width="9" height="18"/><rect x="621" y="72" width="9" height="18"/><rect x="630" y="72" width="9" height="18"/><rect x="675" y="72" width="9" height="18"/><rect x="684" y="72" width="9" height="18"/><rect x="720" y="72" width="9" height="18"/><rect x="729" y="72" width="9" height="18"/><rect x="747" y="72" width="9" height="18"/><rect x="756" y="72" width="9" height="18"/><rect x="792" y="72" width="9" height="18"/><rect x="801" y="72" width="9" height="18"/></svg>